<svg width="17" height="17" viewBox="0 0 17 17" fill="none" xmlns="http://www.w3.org/2000/svg">
<g clip-path="url(#clip0_462_10217)">
<path d="M8.13001 12.67C8.01328 12.6034 7.91667 12.5067 7.85011 12.39C7.7825 12.2786 7.74773 12.1503 7.75001 12.02C7.74746 11.8865 7.78218 11.7549 7.85011 11.64C7.9142 11.5239 8.01168 11.4298 8.13001 11.37C8.24143 11.3024 8.36971 11.2677 8.50001 11.27C8.63362 11.2663 8.76549 11.301 8.88001 11.37C8.99745 11.4275 9.09245 11.5225 9.15003 11.64C9.21795 11.7549 9.25255 11.8865 9.25001 12.02C9.25229 12.1503 9.21764 12.2786 9.15003 12.39C9.0902 12.5083 8.9961 12.6059 8.88001 12.67C8.76656 12.7424 8.63462 12.7806 8.50001 12.78C8.3688 12.7787 8.2406 12.7406 8.13001 12.67ZM9.00001 10.32H8.00001L7.92005 4.21997H9.07008L9.00001 10.32Z" fill="#2773E4"/>
<path d="M8.5 16.5C12.9183 16.5 16.5 12.9183 16.5 8.5C16.5 4.08172 12.9183 0.5 8.5 0.5C4.08172 0.5 0.5 4.08172 0.5 8.5C0.5 12.9183 4.08172 16.5 8.5 16.5Z" stroke="#2773E4" stroke-miterlimit="10"/>
</g>
<defs>
<clipPath id="clip0_462_10217">
<rect width="17" height="17" fill="white"/>
</clipPath>
</defs>
</svg>
