<svg width="24" height="24" viewBox="0 0 24 24" fill="none" xmlns="http://www.w3.org/2000/svg">
<path d="M18.5601 20.15C19.0743 20.15 19.577 19.9975 20.0045 19.7118C20.4321 19.4261 20.7654 19.02 20.9622 18.5449C21.159 18.0698 21.2104 17.5471 21.1101 17.0427C21.0098 16.5384 20.7622 16.0751 20.3986 15.7115C20.035 15.3479 19.5716 15.1002 19.0673 14.9999C18.5629 14.8996 18.0402 14.9511 17.5651 15.1479C17.09 15.3446 16.6839 15.6779 16.3982 16.1055C16.1125 16.533 15.9601 17.0357 15.9601 17.5499C15.9588 17.8918 16.0251 18.2305 16.1553 18.5465C16.2855 18.8625 16.477 19.1497 16.7186 19.3914C16.9603 19.6331 17.2475 19.8245 17.5635 19.9547C17.8795 20.0849 18.2183 20.1513 18.5601 20.15V20.15ZM18.5601 16.86C18.6965 16.86 18.8299 16.9004 18.9434 16.9762C19.0568 17.052 19.1453 17.1598 19.1975 17.2859C19.2498 17.412 19.2635 17.5507 19.2368 17.6846C19.2102 17.8184 19.1445 17.9414 19.048 18.0379C18.9515 18.1344 18.8286 18.2001 18.6947 18.2267C18.5609 18.2533 18.4221 18.2397 18.296 18.1874C18.17 18.1352 18.0622 18.0468 17.9863 17.9333C17.9105 17.8198 17.8701 17.6864 17.8701 17.5499C17.8701 17.3669 17.9428 17.1914 18.0722 17.062C18.2016 16.9326 18.3771 16.86 18.5601 16.86V16.86Z" stroke="black" stroke-miterlimit="10"/>
<path d="M13.3601 20.15C13.8744 20.15 14.377 19.9975 14.8046 19.7118C15.2322 19.4261 15.5653 19.02 15.7621 18.5449C15.9589 18.0698 16.0105 17.5471 15.9102 17.0427C15.8099 16.5384 15.5621 16.0751 15.1985 15.7115C14.8349 15.3479 14.3717 15.1002 13.8673 14.9999C13.363 14.8996 12.8402 14.9511 12.3651 15.1479C11.89 15.3446 11.484 15.6779 11.1983 16.1055C10.9126 16.533 10.76 17.0357 10.76 17.5499C10.7587 17.8918 10.8251 18.2305 10.9553 18.5465C11.0855 18.8625 11.277 19.1497 11.5187 19.3914C11.7604 19.6331 12.0475 19.8245 12.3635 19.9547C12.6796 20.0849 13.0183 20.1513 13.3601 20.15V20.15ZM13.3601 16.86C13.5431 16.86 13.7186 16.9326 13.848 17.062C13.9774 17.1914 14.0501 17.3669 14.0501 17.5499C14.0501 17.7329 13.9774 17.9085 13.848 18.0379C13.7186 18.1673 13.5431 18.2399 13.3601 18.2399C13.1771 18.2399 13.0016 18.1673 12.8722 18.0379C12.7428 17.9085 12.6701 17.7329 12.6701 17.5499C12.6701 17.3669 12.7428 17.1914 12.8722 17.062C13.0016 16.9326 13.1771 16.86 13.3601 16.86V16.86Z" stroke="black" stroke-miterlimit="10"/>
<path d="M15.04 15.52L15.96 13.96L16.89 15.52" stroke="black" stroke-miterlimit="10"/>
<path d="M15.9601 13.96V4.15002C15.9601 4.15002 21.3901 8.76002 15.9601 13.96Z" stroke="black" stroke-linecap="round" stroke-linejoin="round"/>
<path d="M15.9701 13.96V4.15002C15.9701 4.15002 10.5301 8.76002 15.9701 13.96Z" stroke="black" stroke-linecap="round" stroke-linejoin="round"/>
<path d="M3.12012 6.15002V18.15C3.12012 18.6805 3.33074 19.1892 3.70581 19.5642C4.08088 19.9393 4.58968 20.15 5.12012 20.15H8.63C8.89522 20.15 9.14962 20.0447 9.33716 19.8571C9.52469 19.6696 9.63 19.4152 9.63 19.15V18.67C9.63 18.4048 9.52469 18.1505 9.33716 17.9629C9.14962 17.7754 8.89522 17.67 8.63 17.67H7.11011C6.84489 17.67 6.59049 17.5647 6.40295 17.3771C6.21542 17.1896 6.11011 16.9352 6.11011 16.67C6.11011 16.4048 6.21542 16.1505 6.40295 15.9629C6.59049 15.7754 6.84489 15.67 7.11011 15.67H8.63C8.89522 15.67 9.14962 15.5647 9.33716 15.3771C9.52469 15.1896 9.63 14.9352 9.63 14.67V14.15C9.63 13.8848 9.52469 13.6305 9.33716 13.4429C9.14962 13.2554 8.89522 13.15 8.63 13.15H7.11011C6.84489 13.15 6.59049 13.0447 6.40295 12.8571C6.21542 12.6696 6.11011 12.4152 6.11011 12.15C6.11011 11.8848 6.21542 11.6305 6.40295 11.4429C6.59049 11.2554 6.84489 11.15 7.11011 11.15H8.63C8.89522 11.15 9.14962 11.0447 9.33716 10.8571C9.52469 10.6696 9.63 10.4152 9.63 10.15V9.63002C9.63 9.3648 9.52469 9.11045 9.33716 8.92291C9.14962 8.73538 8.89522 8.63002 8.63 8.63002H7.11011C6.84489 8.63002 6.59049 8.52466 6.40295 8.33713C6.21542 8.14959 6.11011 7.89524 6.11011 7.63002C6.11011 7.3648 6.21542 7.11045 6.40295 6.92291C6.59049 6.73538 6.84489 6.63002 7.11011 6.63002H8.63C8.89522 6.63002 9.14962 6.52466 9.33716 6.33713C9.52469 6.14959 9.63 5.89524 9.63 5.63002V5.15002C9.63 4.88481 9.52469 4.63045 9.33716 4.44292C9.14962 4.25538 8.89522 4.15002 8.63 4.15002H5.12012C4.58968 4.15002 4.08088 4.36074 3.70581 4.73581C3.33074 5.11088 3.12012 5.61959 3.12012 6.15002Z" stroke="black" stroke-miterlimit="10"/>
</svg>
