<svg width="24" height="24" viewBox="0 0 24 24" fill="none" xmlns="http://www.w3.org/2000/svg">
<path d="M19 5.72998H5C4.44772 5.72998 4 6.1777 4 6.72998V18.73C4 19.2823 4.44772 19.73 5 19.73H19C19.5523 19.73 20 19.2823 20 18.73V6.72998C20 6.1777 19.5523 5.72998 19 5.72998Z" stroke="black" stroke-linecap="round" stroke-linejoin="round"/>
<path d="M8.45996 3.72998H6.45996V5.72998H8.45996V3.72998Z" stroke="black" stroke-linecap="round" stroke-linejoin="round"/>
<path d="M15.53 5.73999H17.53V3.73999L15.53 3.73999V5.73999Z" stroke="black" stroke-linecap="round" stroke-linejoin="round"/>
<path d="M4 8.42999H20" stroke="black" stroke-linecap="round" stroke-linejoin="round"/>
<path d="M12.75 11.01H11.25V12.51H12.75V11.01Z" fill="black"/>
<path d="M8.70996 11.01H7.20996V12.51H8.70996V11.01Z" fill="black"/>
<path d="M8.70996 15.47H7.20996V16.97H8.70996V15.47Z" fill="black"/>
<path d="M15.3 12.51H16.8V11.01H15.3V12.51Z" fill="black"/>
<path d="M15.3 16.97H16.8V15.47H15.3V16.97Z" fill="black"/>
<path d="M12.75 15.47H11.25V16.97H12.75V15.47Z" fill="black"/>
</svg>
