<svg width="24" height="24" viewBox="0 0 24 24" fill="none" xmlns="http://www.w3.org/2000/svg">
<path d="M11.1601 7.19002L8.54008 4.56002C8.44712 4.46629 8.3365 4.39189 8.21464 4.34113C8.09278 4.29036 7.96207 4.26422 7.83006 4.26422C7.69805 4.26422 7.56737 4.29036 7.44551 4.34113C7.32365 4.39189 7.21303 4.46629 7.12007 4.56002L5.23008 6.46001C5.07757 6.60257 4.97868 6.79323 4.95005 7.00002L4.38008 10.43C4.32188 10.7701 4.34597 11.1191 4.45036 11.4479C4.55475 11.7768 4.73641 12.0758 4.98008 12.32L11.6001 18.94C11.8448 19.183 12.1438 19.3642 12.4725 19.4685C12.8012 19.5729 13.15 19.5974 13.4901 19.54L16.9201 18.97C17.1283 18.937 17.3208 18.839 17.4701 18.69L19.3601 16.8C19.4538 16.7071 19.5282 16.5965 19.579 16.4746C19.6297 16.3527 19.6559 16.222 19.6559 16.09C19.6559 15.958 19.6297 15.8273 19.579 15.7054C19.5282 15.5836 19.4538 15.473 19.3601 15.38L16.7301 12.76C16.5427 12.5738 16.2893 12.4692 16.0251 12.4692C15.7609 12.4692 15.5074 12.5738 15.3201 12.76L13.5501 14.53C13.4566 14.6216 13.3309 14.6729 13.2001 14.6729C13.0692 14.6729 12.9435 14.6216 12.8501 14.53L9.40007 11.08C9.3532 11.0335 9.31602 10.9782 9.29063 10.9173C9.26525 10.8564 9.25218 10.791 9.25218 10.725C9.25218 10.659 9.26525 10.5937 9.29063 10.5327C9.31602 10.4718 9.3532 10.4165 9.40007 10.37L11.1601 8.60002C11.3463 8.41266 11.4508 8.15921 11.4508 7.89502C11.4508 7.63083 11.3463 7.37738 11.1601 7.19002V7.19002Z" stroke="black" stroke-linejoin="round"/>
</svg>
