<svg width="24" height="24" viewBox="0 0 24 24" fill="none" xmlns="http://www.w3.org/2000/svg">
<path d="M5.42004 12.49L11.0801 18.15C11.4516 18.5219 11.8927 18.817 12.3783 19.0183C12.8639 19.2196 13.3844 19.3232 13.91 19.3232C14.4357 19.3232 14.9562 19.2196 15.4418 19.0183C15.9274 18.817 16.3685 18.5219 16.74 18.15L19.54 15.34C19.7263 15.1527 19.8308 14.8992 19.8308 14.635C19.8308 14.3708 19.7263 14.1174 19.54 13.93L19.2101 13.59C19.1171 13.4963 19.0065 13.4219 18.8846 13.3711C18.7628 13.3204 18.632 13.2942 18.5 13.2942C18.368 13.2942 18.2373 13.3204 18.1155 13.3711C17.9936 13.4219 17.883 13.4963 17.79 13.59L15.6801 15.7C15.4927 15.8863 15.2392 15.9908 14.975 15.9908C14.7108 15.9908 14.4574 15.8863 14.27 15.7V15.7C14.0838 15.5127 13.9792 15.2592 13.9792 14.995C13.9792 14.7308 14.0838 14.4774 14.27 14.29L16.38 12.18C16.5663 11.9927 16.6708 11.7392 16.6708 11.475C16.6708 11.2108 16.5663 10.9574 16.38 10.77L16.01 10.4C15.917 10.3063 15.8064 10.2319 15.6846 10.1811C15.5627 10.1304 15.4321 10.1042 15.3 10.1042C15.168 10.1042 15.0373 10.1304 14.9154 10.1811C14.7935 10.2319 14.6831 10.3063 14.5901 10.4L12.48 12.5C12.2926 12.6863 12.0392 12.7908 11.775 12.7908C11.5108 12.7908 11.2574 12.6863 11.0701 12.5V12.5C10.8838 12.3127 10.7793 12.0592 10.7793 11.795C10.7793 11.5308 10.8838 11.2774 11.0701 11.09L13.1801 8.98003C13.3663 8.79266 13.4708 8.53921 13.4708 8.27502C13.4708 8.01084 13.3663 7.75739 13.1801 7.57002L12.8101 7.20003C12.7171 7.1063 12.6065 7.03189 12.4846 6.98112C12.3628 6.93036 12.232 6.90422 12.1 6.90422C11.968 6.90422 11.8373 6.93036 11.7155 6.98112C11.5936 7.03189 11.483 7.1063 11.39 7.20003L9.28003 9.29002C9.09267 9.47627 8.83926 9.58081 8.57507 9.58081C8.31089 9.58081 8.05736 9.47627 7.87 9.29002V9.29002C7.77627 9.19706 7.70189 9.08646 7.65112 8.9646C7.60035 8.84274 7.57422 8.71203 7.57422 8.58002C7.57422 8.44801 7.60035 8.31731 7.65112 8.19545C7.70189 8.07359 7.77627 7.96299 7.87 7.87003L9.97998 5.76003C10.1662 5.57266 10.2709 5.31921 10.2709 5.05502C10.2709 4.79084 10.1662 4.53738 9.97998 4.35002L9.64001 4.01003C9.45265 3.82377 9.19924 3.71924 8.93506 3.71924C8.67087 3.71924 8.41734 3.82377 8.22998 4.01003L5.42004 6.82002C5.04664 7.1917 4.75028 7.63348 4.5481 8.12C4.34591 8.60651 4.24182 9.12818 4.24182 9.65503C4.24182 10.1819 4.34591 10.7035 4.5481 11.19C4.75028 11.6766 5.04664 12.1183 5.42004 12.49V12.49Z" stroke="black" stroke-miterlimit="10"/>
</svg>
