<svg width="24" height="24" viewBox="0 0 24 24" fill="none" xmlns="http://www.w3.org/2000/svg">
<path d="M21.43 14.99L20.12 10.32C19.96 9.70004 19.3 9.19004 18.18 8.82004C18.1407 8.56782 18.047 8.32717 17.9054 8.11478C17.7638 7.90238 17.5777 7.72333 17.36 7.59004C17.3649 7.52013 17.3649 7.44995 17.36 7.38004C17.3241 7.0698 17.214 6.7728 17.0387 6.51427C16.8635 6.25574 16.6285 6.04333 16.3536 5.89509C16.0787 5.74685 15.7722 5.66716 15.4599 5.6628C15.1476 5.65844 14.8389 5.72953 14.56 5.87004C14.3236 5.57206 13.9975 5.35817 13.63 5.26004C13.5305 4.87679 13.3066 4.53737 12.9936 4.2949C12.6805 4.05243 12.296 3.9206 11.9 3.92004C11.5162 3.92022 11.1428 4.04516 10.8362 4.27604C10.5295 4.50692 10.3063 4.83121 10.2 5.20004C9.76249 5.1799 9.33287 5.32177 8.9934 5.59851C8.65393 5.87525 8.42841 6.26744 8.35998 6.70004C8.10565 6.66161 7.84606 6.67782 7.5985 6.7476C7.35094 6.81738 7.12112 6.93912 6.92431 7.10471C6.72749 7.2703 6.56818 7.47595 6.45708 7.70792C6.34598 7.9399 6.2856 8.19289 6.27996 8.45004C6.27439 8.51659 6.27439 8.58349 6.27996 8.65004C4.82996 9.04004 4 9.60004 3.82 10.3L2.55999 14.99C2.5552 15.0332 2.5552 15.0768 2.55999 15.12C2.55999 16.77 7.42996 18.51 12.03 18.51C16.63 18.51 21.5 16.77 21.5 15.12C21.4822 15.0739 21.4587 15.0303 21.43 14.99ZM7.13 9.69004C7.20849 9.66928 7.28101 9.63043 7.34179 9.5766C7.40257 9.52277 7.44988 9.45545 7.47997 9.38004C7.51053 9.30302 7.52104 9.2195 7.51055 9.13731C7.50006 9.05511 7.4689 8.97692 7.41997 8.91004C7.32918 8.7775 7.28038 8.62069 7.27996 8.46004C7.28201 8.30182 7.33216 8.14797 7.4237 8.01891C7.51523 7.88985 7.64389 7.79168 7.79253 7.73743C7.94117 7.68319 8.10276 7.67543 8.25591 7.71519C8.40906 7.75495 8.54653 7.84034 8.65001 7.96004C8.73016 8.05618 8.84341 8.11877 8.96746 8.13543C9.09151 8.15209 9.21732 8.12162 9.32 8.05004C9.42226 7.97561 9.49322 7.86582 9.51909 7.74201C9.54497 7.6182 9.52391 7.4892 9.46001 7.38004C9.38271 7.26459 9.34099 7.12898 9.34002 6.99004C9.34409 6.86213 9.37874 6.73706 9.44115 6.62534C9.50356 6.51361 9.59188 6.41849 9.69866 6.34795C9.80544 6.27742 9.92761 6.23353 10.0549 6.21997C10.1821 6.20641 10.3107 6.22359 10.43 6.27004C10.5112 6.30264 10.5998 6.31242 10.6861 6.29832C10.7725 6.28422 10.8533 6.24677 10.92 6.19004C10.9925 6.13462 11.0492 6.06109 11.0843 5.97684C11.1194 5.89258 11.1317 5.80056 11.12 5.71004C11.12 5.60761 11.1402 5.50618 11.1794 5.41154C11.2186 5.31691 11.276 5.23093 11.3484 5.1585C11.4209 5.08607 11.5069 5.02862 11.6015 4.98942C11.6961 4.95022 11.7976 4.93004 11.9 4.93004C12.0024 4.93004 12.1038 4.95022 12.1985 4.98942C12.2931 5.02862 12.3791 5.08607 12.4515 5.1585C12.524 5.23093 12.5814 5.31691 12.6206 5.41154C12.6598 5.50618 12.68 5.60761 12.68 5.71004C12.68 5.84265 12.7326 5.96982 12.8264 6.06359C12.9202 6.15736 13.0474 6.21004 13.18 6.21004C13.3501 6.21141 13.5149 6.26906 13.6488 6.37399C13.7827 6.47891 13.878 6.62521 13.92 6.79004C13.9441 6.88191 13.9934 6.96523 14.0623 7.0306C14.1312 7.09597 14.217 7.1408 14.31 7.16004C14.4027 7.17664 14.4982 7.16772 14.5863 7.13425C14.6744 7.10079 14.7517 7.04403 14.81 6.97004C15.23 6.41004 16.37 6.75004 16.37 7.38004C16.3705 7.48631 16.3501 7.59164 16.31 7.69004C16.2828 7.75496 16.2687 7.82465 16.2687 7.89504C16.2687 7.96544 16.2828 8.03513 16.31 8.10004C16.3412 8.16403 16.3861 8.22043 16.4413 8.26534C16.4966 8.31024 16.561 8.34256 16.63 8.36004C16.7948 8.40546 16.9405 8.50313 17.045 8.63836C17.1496 8.77359 17.2075 8.9391 17.21 9.11004C17.2138 9.16998 17.2138 9.2301 17.21 9.29004C17.1864 9.38087 17.1898 9.47665 17.22 9.56552C17.2502 9.65439 17.3059 9.73245 17.38 9.79004C17.4652 9.92012 17.5039 10.0752 17.49 10.23C16.63 10.92 14.4 11.23 12.55 11.23H12.03C8.22996 11.23 6.97 10.61 6.57 10.28C6.5967 10.1383 6.66372 10.0072 6.76305 9.90253C6.86238 9.79788 6.98979 9.7241 7.13 9.69004ZM11.98 17.51C7.23997 17.51 3.77001 15.79 3.52001 15.16L4.82 10.57C4.82 10.41 5.09998 10.18 5.60998 9.95004C5.56643 10.1132 5.54291 10.2812 5.53997 10.45C5.5381 10.5633 5.5772 10.6733 5.65001 10.76C6.42001 11.76 8.57001 12.22 12.02 12.22H12.56C14.25 12.22 17.24 11.98 18.36 10.79C18.4315 10.7153 18.4802 10.6216 18.5 10.52V10.44C18.5095 10.2969 18.5095 10.1532 18.5 10.01C18.94 10.22 19.15 10.43 19.19 10.58L20.48 15.15C20.17 15.8 16.71 17.51 11.98 17.51Z" fill="black"/>
<path d="M12.85 8.06994C12.9268 8.06013 13.0048 8.06664 13.0789 8.08904C13.153 8.11145 13.2215 8.14924 13.28 8.19994C13.3724 8.37106 13.4042 8.56847 13.37 8.75994C13.1218 8.88898 12.9129 9.08239 12.7651 9.31989C12.6173 9.5574 12.5361 9.83028 12.53 10.1099L13.53 10.1599C13.5259 10.0913 13.5358 10.0226 13.559 9.95788C13.5821 9.89316 13.6182 9.8338 13.6649 9.78336C13.7116 9.73292 13.768 9.69244 13.8307 9.66436C13.8935 9.63628 13.9612 9.62117 14.03 9.61994C14.0914 9.61008 14.1542 9.61307 14.2145 9.62872C14.2747 9.64438 14.3311 9.67235 14.3799 9.71088C14.4288 9.74942 14.4691 9.79767 14.4984 9.85259C14.5277 9.9075 14.5452 9.9679 14.55 10.0299L15.55 9.95994C15.5262 9.64642 15.4013 9.34912 15.1938 9.11284C14.9864 8.87656 14.7078 8.71409 14.4 8.64994C14.4262 8.26473 14.3086 7.88348 14.07 7.57994C13.9247 7.4059 13.7401 7.26889 13.5315 7.18021C13.3228 7.09154 13.0961 7.05374 12.87 7.06994C12.4747 7.07252 12.0962 7.23002 11.8157 7.50861C11.5353 7.7872 11.3752 8.16467 11.37 8.55994H12.37C12.3724 8.43247 12.4235 8.31074 12.5128 8.21966C12.602 8.12858 12.7226 8.07502 12.85 8.06994Z" fill="black"/>
</svg>
