<svg width="24" height="24" viewBox="0 0 24 24" fill="none" xmlns="http://www.w3.org/2000/svg">
<path d="M15.9602 12.69C15.543 12.4526 15.1976 12.1072 14.9602 11.69C14.6784 11.1632 14.2589 10.7227 13.7464 10.4156C13.2339 10.1085 12.6476 9.94629 12.0501 9.94629C11.4527 9.94629 10.8664 10.1085 10.3539 10.4156C9.84141 10.7227 9.42192 11.1632 9.14016 11.69C8.89078 12.1152 8.52691 12.4617 8.09012 12.69C7.49533 13.0182 7.01554 13.5208 6.71542 14.1302C6.4153 14.7396 6.3093 15.4264 6.41177 16.0979C6.51424 16.7694 6.82027 17.3933 7.28848 17.8854C7.75669 18.3776 8.36455 18.7143 9.03012 18.85C9.76995 18.9945 10.5369 18.8889 11.2102 18.55C11.4648 18.4169 11.7478 18.3473 12.0351 18.3473C12.3225 18.3473 12.6055 18.4169 12.8601 18.55C13.5337 18.8882 14.3003 18.9937 15.0401 18.85C15.7105 18.7257 16.3261 18.3974 16.8028 17.9099C17.2795 17.4225 17.594 16.7998 17.7035 16.1268C17.8129 15.4539 17.7119 14.7635 17.4142 14.1502C17.1164 13.5368 16.6365 13.0304 16.0401 12.7L15.9602 12.69Z" fill="#020202" stroke="black" stroke-linecap="round" stroke-linejoin="round"/>
<path d="M9.99426 8.63018C10.8585 8.39861 11.3238 7.333 11.0337 6.25006C10.7435 5.16713 9.80767 4.47696 8.94346 4.70852C8.07924 4.94009 7.61389 6.0057 7.90406 7.08864C8.19424 8.17157 9.13005 8.86174 9.99426 8.63018Z" fill="#020202" stroke="black" stroke-miterlimit="10"/>
<path d="M6.39722 11.7483C7.10509 11.3396 7.28493 10.3259 6.79892 9.48414C6.31291 8.64234 5.3451 8.29123 4.63722 8.69992C3.92935 9.10861 3.74946 10.1224 4.23547 10.9641C4.72148 11.8059 5.68935 12.157 6.39722 11.7483Z" fill="#020202" stroke="black" stroke-miterlimit="10"/>
<path d="M16.1042 7.09128C16.3944 6.00834 15.929 4.9427 15.0648 4.71113C14.2006 4.47957 13.2648 5.16977 12.9746 6.2527C12.6844 7.33564 13.1498 8.40122 14.014 8.63279C14.8782 8.86435 15.814 8.17421 16.1042 7.09128Z" fill="#020202" stroke="black" stroke-miterlimit="10"/>
<path d="M19.7608 10.9603C20.2468 10.1185 20.067 9.10478 19.3591 8.69609C18.6512 8.2874 17.6834 8.63851 17.1974 9.4803C16.7114 10.3221 16.8912 11.3358 17.5991 11.7445C18.307 12.1532 19.2748 11.8021 19.7608 10.9603Z" fill="#020202" stroke="black" stroke-miterlimit="10"/>
</svg>
