<svg width="24" height="24" viewBox="0 0 24 24" fill="none" xmlns="http://www.w3.org/2000/svg">
<path d="M15.9601 12.69C15.5233 12.4617 15.1595 12.1152 14.9101 11.69C14.6283 11.1632 14.2088 10.7227 13.6963 10.4156C13.1838 10.1085 12.5976 9.94629 12.0001 9.94629C11.4026 9.94629 10.8164 10.1085 10.3039 10.4156C9.79138 10.7227 9.37183 11.1632 9.09007 11.69C8.85948 12.1123 8.51236 12.4594 8.09007 12.69C7.49022 13.0152 7.00549 13.5178 6.70225 14.129C6.39902 14.7402 6.29211 15.4302 6.3961 16.1045C6.5001 16.7789 6.80996 17.4046 7.28325 17.8961C7.75654 18.3875 8.37014 18.7207 9.04008 18.85C9.77994 18.9937 10.5465 18.8882 11.2201 18.55C11.4747 18.4169 11.7578 18.3473 12.0451 18.3473C12.3324 18.3473 12.6155 18.4169 12.8701 18.55C13.5434 18.8889 14.3103 18.9945 15.0501 18.85C15.7168 18.7206 16.3277 18.3899 16.8006 17.9024C17.2734 17.4149 17.5854 16.7941 17.6944 16.1237C17.8034 15.4534 17.7042 14.7657 17.4102 14.1535C17.1162 13.5413 16.6415 13.034 16.0501 12.7L15.9601 12.69Z" stroke="black" stroke-linecap="round" stroke-linejoin="round"/>
<path d="M9.98767 8.6375C10.8519 8.40594 11.3172 7.34033 11.0271 6.25739C10.7369 5.17445 9.80108 4.48428 8.93687 4.71585C8.07265 4.94741 7.6073 6.01302 7.89747 7.09596C8.18764 8.1789 9.12346 8.86907 9.98767 8.6375Z" stroke="black" stroke-miterlimit="10"/>
<path d="M6.40034 11.7534C7.10821 11.3447 7.28811 10.3309 6.8021 9.48914C6.31609 8.64735 5.34822 8.29627 4.64034 8.70496C3.93247 9.11365 3.75263 10.1274 4.23864 10.9692C4.72465 11.8109 5.69247 12.1621 6.40034 11.7534Z" stroke="black" stroke-miterlimit="10"/>
<path d="M16.1096 7.08829C16.3998 6.00535 15.9344 4.93977 15.0702 4.7082C14.206 4.47664 13.2702 5.16678 12.98 6.24971C12.6898 7.33265 13.1552 8.39829 14.0194 8.62986C14.8836 8.86142 15.8194 8.17122 16.1096 7.08829Z" stroke="black" stroke-miterlimit="10"/>
<path d="M19.7608 10.9659C20.2468 10.1241 20.067 9.1104 19.3591 8.70171C18.6512 8.29302 17.6834 8.64412 17.1974 9.48592C16.7114 10.3277 16.8912 11.3414 17.5991 11.7501C18.307 12.1588 19.2748 11.8077 19.7608 10.9659Z" stroke="black" stroke-miterlimit="10"/>
</svg>
