<svg width="24" height="24" viewBox="0 0 24 24" fill="none" xmlns="http://www.w3.org/2000/svg">
<path d="M12 20C16.4183 20 20 16.4183 20 12C20 7.58172 16.4183 4 12 4C7.58172 4 4 7.58172 4 12C4 16.4183 7.58172 20 12 20Z" fill="#5794f0"/>
<path d="M12.44 8.32L13.03 10.24C13.0598 10.3332 13.1185 10.4145 13.1976 10.472C13.2767 10.5296 13.3721 10.5604 13.4699 10.56H15.4699C15.5692 10.5576 15.6666 10.5874 15.7475 10.6449C15.8284 10.7025 15.8885 10.7846 15.9189 10.8791C15.9493 10.9736 15.9482 11.0754 15.916 11.1693C15.8837 11.2632 15.822 11.3441 15.7399 11.4L14.16 12.55C14.0797 12.6071 14.0199 12.6884 13.9893 12.782C13.9587 12.8756 13.9589 12.9765 13.9899 13.07L14.59 14.93C14.6226 15.0231 14.6243 15.1241 14.595 15.2183C14.5658 15.3124 14.5071 15.3947 14.4276 15.4529C14.348 15.5112 14.2519 15.5424 14.1533 15.5418C14.0547 15.5413 13.9589 15.5091 13.88 15.45L12.29 14.3C12.2121 14.2416 12.1173 14.21 12.02 14.21C11.9226 14.21 11.8278 14.2416 11.7499 14.3L10.16 15.45C10.0811 15.5091 9.98525 15.5413 9.88667 15.5418C9.78808 15.5424 9.69191 15.5112 9.61237 15.4529C9.53283 15.3947 9.47413 15.3124 9.44489 15.2183C9.41565 15.1241 9.41748 15.0231 9.45002 14.93L10.06 13.07C10.088 12.9763 10.0867 12.8763 10.0563 12.7834C10.026 12.6905 9.96788 12.609 9.88996 12.55L8.3 11.4C8.21797 11.3441 8.15621 11.2632 8.12397 11.1693C8.09173 11.0754 8.09066 10.9736 8.12104 10.8791C8.15142 10.7846 8.21164 10.7025 8.29255 10.6449C8.37345 10.5874 8.47078 10.5576 8.57001 10.56H10.57C10.6679 10.5604 10.7632 10.5296 10.8424 10.472C10.9215 10.4145 10.9802 10.3332 11.01 10.24L11.6199 8.36999C11.6536 8.29175 11.7084 8.22438 11.778 8.17539C11.8477 8.1264 11.9296 8.09771 12.0146 8.09253C12.0996 8.08734 12.1844 8.10586 12.2595 8.14603C12.3346 8.18619 12.3971 8.24642 12.44 8.32Z" fill="white"/>
</svg>
