<svg width="24" height="24" viewBox="0 0 24 24" fill="none" xmlns="http://www.w3.org/2000/svg">
<path d="M12.01 3.59998C10.2728 3.59998 8.60677 4.29007 7.3784 5.51843C6.15004 6.7468 5.45996 8.41281 5.45996 10.15C5.45996 15.87 12.01 20.47 12.01 20.47C12.01 20.47 18.57 15.88 18.57 10.16C18.5713 9.29814 18.4025 8.44451 18.0733 7.64802C17.7441 6.85153 17.2609 6.12784 16.6515 5.51842C16.0421 4.90901 15.3184 4.42585 14.5219 4.09665C13.7254 3.76744 12.8718 3.59867 12.01 3.59998ZM12.01 11.92C11.5748 11.92 11.1495 11.7909 10.7877 11.5492C10.4259 11.3075 10.1439 10.9639 9.97742 10.5619C9.8109 10.1599 9.76735 9.71754 9.85223 9.29078C9.93712 8.86402 10.1466 8.47202 10.4543 8.16434C10.762 7.85667 11.154 7.64714 11.5808 7.56225C12.0075 7.47736 12.4499 7.52093 12.8519 7.68745C13.2539 7.85396 13.5974 8.13594 13.8392 8.49773C14.0809 8.85951 14.21 9.28486 14.21 9.71998C14.21 10.0097 14.1527 10.2966 14.0415 10.5642C13.9303 10.8318 13.7674 11.0747 13.5621 11.2792C13.3567 11.4836 13.113 11.6454 12.8449 11.7554C12.5769 11.8654 12.2897 11.9213 12 11.92H12.01Z" stroke="black" stroke-miterlimit="10"/>
</svg>
