<svg width="24" height="24" viewBox="0 0 24 24" fill="none" xmlns="http://www.w3.org/2000/svg">
<path d="M3.74998 8.12006C3.31842 8.55048 3.02427 9.09926 2.90477 9.69695C2.78526 10.2946 2.84572 10.9143 3.0786 11.4776C3.31147 12.0409 3.70619 12.5224 4.21287 12.8612C4.71955 13.2 5.3154 13.3808 5.92491 13.3808C6.53442 13.3808 7.13027 13.2 7.63695 12.8612C8.14363 12.5224 8.53835 12.0409 8.77122 11.4776C9.0041 10.9143 9.06468 10.2946 8.94517 9.69695C8.82567 9.09926 8.53152 8.55048 8.09996 8.12006C7.52258 7.54421 6.74036 7.22083 5.92491 7.22083C5.10946 7.22083 4.32736 7.54421 3.74998 8.12006V8.12006ZM6.49998 10.8701C6.38645 10.9827 6.24202 11.0592 6.08507 11.09C5.92812 11.1207 5.76566 11.1043 5.61803 11.0428C5.47039 10.9813 5.3442 10.8775 5.25548 10.7444C5.16675 10.6113 5.11949 10.455 5.11949 10.2951C5.11949 10.1351 5.16675 9.97877 5.25548 9.8457C5.3442 9.71264 5.47039 9.60881 5.61803 9.54732C5.76566 9.48582 5.92812 9.46941 6.08507 9.50015C6.24202 9.53089 6.38645 9.60742 6.49998 9.72006C6.64423 9.87081 6.72471 10.0714 6.72471 10.2801C6.72471 10.4887 6.64423 10.6893 6.49998 10.8401V10.8701Z" stroke="black" stroke-miterlimit="10"/>
<path d="M8.07991 3.77995C7.65033 4.20921 7.35773 4.75622 7.23909 5.35181C7.12045 5.94739 7.18111 6.56478 7.41341 7.12589C7.6457 7.68699 8.03911 8.16661 8.54402 8.50404C9.04893 8.84148 9.64267 9.02159 10.25 9.02159C10.8572 9.02159 11.4509 8.84148 11.9558 8.50404C12.4607 8.16661 12.8542 7.68699 13.0865 7.12589C13.3188 6.56478 13.3793 5.94739 13.2607 5.35181C13.1421 4.75622 12.8495 4.20921 12.4199 3.77995C11.8442 3.20472 11.0638 2.88159 10.25 2.88159C9.43614 2.88159 8.65558 3.20472 8.07991 3.77995ZM10.8299 6.51994C10.7544 6.59545 10.6648 6.65536 10.5661 6.69623C10.4675 6.73709 10.3617 6.75812 10.255 6.75812C10.1482 6.75812 10.0423 6.73709 9.94368 6.69623C9.84502 6.65536 9.7554 6.59545 9.67989 6.51994C9.60438 6.44443 9.54448 6.35479 9.50362 6.25613C9.46275 6.15748 9.44173 6.05173 9.44173 5.94495C9.44173 5.83816 9.46275 5.73242 9.50362 5.63376C9.54448 5.5351 9.60438 5.44546 9.67989 5.36995C9.83239 5.21745 10.0393 5.13177 10.255 5.13177C10.4706 5.13177 10.6774 5.21745 10.8299 5.36995C10.9824 5.52245 11.0681 5.72928 11.0681 5.94495C11.0681 6.16061 10.9824 6.36744 10.8299 6.51994V6.51994Z" stroke="black" stroke-miterlimit="10"/>
<path d="M10.57 9.05005L11.11 11.13L9.02002 10.6" stroke="black" stroke-linecap="round" stroke-linejoin="round"/>
<path d="M11.0799 11.08L16.88 21.08C16.88 21.08 8.60993 19.61 11.0799 11.08Z" stroke="black" stroke-linecap="round" stroke-linejoin="round"/>
<path d="M11.08 11.13L21.08 16.93C21.08 16.93 19.63 8.64003 11.08 11.13Z" stroke="black" stroke-linecap="round" stroke-linejoin="round"/>
</svg>
