<svg width="24" height="24" viewBox="0 0 24 24" fill="none" xmlns="http://www.w3.org/2000/svg">
<path d="M12 20C16.4183 20 20 16.4183 20 12C20 7.58172 16.4183 4 12 4C7.58172 4 4 7.58172 4 12C4 16.4183 7.58172 20 12 20Z" stroke="black" stroke-miterlimit="10"/>
<path d="M12 12.64C13.7674 12.64 15.2 11.2073 15.2 9.43999C15.2 7.67268 13.7674 6.23999 12 6.23999C10.2327 6.23999 8.80005 7.67268 8.80005 9.43999C8.80005 11.2073 10.2327 12.64 12 12.64Z" stroke="black" stroke-miterlimit="10"/>
<path d="M18.23 17C17.4485 16.1297 16.4856 15.4414 15.4092 14.9835C14.3328 14.5257 13.169 14.3094 12 14.35C10.8299 14.301 9.66361 14.5135 8.58592 14.9719C7.50824 15.4303 6.54628 16.1231 5.77002 17C6.55725 17.8887 7.51359 18.6117 8.58323 19.1267C9.65288 19.6418 10.8144 19.9387 12 20C13.1856 19.9387 14.3472 19.6418 15.4168 19.1267C16.4865 18.6117 17.4428 17.8887 18.23 17V17Z" stroke="black" stroke-miterlimit="10"/>
</svg>
