<svg width="36" height="36" viewBox="0 0 36 36" fill="none" xmlns="http://www.w3.org/2000/svg">
<g clip-path="url(#clip0_664_10943)">
<circle cx="18" cy="18" r="17.5" fill="white" stroke="#505050"/>
<path d="M6.47886 15.4033C7.11765 12.4549 11.8512 11.0247 14.2423 11.6768C16.2918 10.0931 19.4283 10.4454 21.2604 11.211C23.341 12.0805 24.6142 17.546 24.7695 20.8377C24.9247 24.1294 20.0804 25.682 14.7391 25.7131C9.39787 25.7442 7.16206 24.1294 7.47254 21.9867C7.72195 20.2654 9.85338 19.3781 11.0127 19.0987C11.0127 19.0987 5.67148 19.1297 6.47886 15.4033Z" fill="#DCECFF" stroke="black" stroke-width="0.7" stroke-linejoin="round"/>
<path d="M25.049 11.2732C23.3596 10.9502 21.8608 11.4078 21.3225 11.6769C21.6537 11.8425 22.2852 12.9066 22.161 15.8381C22.0057 19.5024 23.9 21.3967 26.6948 21.0241C28.6035 20.7696 29.8002 19.5024 29.8002 16.4592C29.8002 13.4159 27.1606 11.6769 25.049 11.2732Z" fill="#DCECFF"/>
<path d="M21.3225 11.6769C21.8608 11.4078 23.3596 10.9502 25.049 11.2732C27.1606 11.6769 29.8002 13.4159 29.8002 16.4592C29.8002 19.5024 28.6035 20.7696 26.6948 21.0241C23.9 21.3967 22.0057 19.5024 22.161 15.8381" stroke="black" stroke-width="0.7" stroke-linejoin="round"/>
<ellipse cx="15.0185" cy="17.3287" rx="2.20481" ry="2.4843" fill="white" stroke="black" stroke-width="0.7" stroke-linejoin="round"/>
<ellipse cx="14.149" cy="17.3286" rx="1.33531" ry="1.49058" fill="black"/>
<ellipse cx="18.6828" cy="17.3287" rx="2.20481" ry="2.4843" fill="white" stroke="black" stroke-width="0.7" stroke-linejoin="round"/>
<ellipse cx="12.2859" cy="21.4588" rx="0.962665" ry="0.776343" fill="black"/>
<ellipse cx="17.8133" cy="17.3286" rx="1.33531" ry="1.49058" fill="black"/>
</g>
<defs>
<clipPath id="clip0_664_10943">
<rect width="36" height="36" fill="white"/>
</clipPath>
</defs>
</svg>
