<svg width="96" height="96" viewBox="0 0 96 96" fill="none" xmlns="http://www.w3.org/2000/svg">
<g clip-path="url(#clip0_500_6747)">
<path d="M48 2C57.098 2 65.9916 4.69787 73.5562 9.75241C81.1209 14.807 87.0168 21.9912 90.4984 30.3966C93.9801 38.802 94.891 48.051 93.1161 56.9742C91.3412 65.8973 86.9601 74.0937 80.5269 80.5269C74.0937 86.9601 65.8973 91.3412 56.9742 93.1161C48.051 94.891 38.802 93.9801 30.3966 90.4984C21.9912 87.0168 14.807 81.1209 9.75241 73.5562C4.69787 65.9916 2.00003 57.0979 2.00003 48C2.01591 35.8049 6.8674 24.1139 15.4906 15.4906C24.1139 6.8674 35.8049 2.01588 48 2ZM48 0C38.5065 0 29.2262 2.81514 21.3326 8.08945C13.4391 13.3638 7.28679 20.8603 3.65378 29.6312C0.0207751 38.402 -0.929755 48.0533 0.922336 57.3643C2.77443 66.6754 7.34595 75.2282 14.0589 81.9411C20.7718 88.6541 29.3246 93.2256 38.6357 95.0777C47.9467 96.9298 57.598 95.9792 66.3688 92.3462C75.1397 88.7132 82.6362 82.5609 87.9106 74.6674C93.1849 66.7738 96 57.4935 96 48C96 35.2696 90.9429 23.0606 81.9411 14.0589C72.9394 5.05712 60.7304 0 48 0Z" fill="#323232"/>
<path d="M48 95C73.9574 95 95 73.9574 95 48C95 22.0426 73.9574 1 48 1C22.0426 1 1 22.0426 1 48C1 73.9574 22.0426 95 48 95Z" fill="#C5DDF9"/>
<path d="M48.0001 57.38C58.5984 57.38 67.1901 48.7883 67.1901 38.19C67.1901 27.5917 58.5984 19 48.0001 19C37.4017 19 28.8101 27.5917 28.8101 38.19C28.8101 48.7883 37.4017 57.38 48.0001 57.38Z" fill="white"/>
<path d="M85 77C81.49 73.2 68.85 62.11 48 62.11C26.87 62.11 14.45 73.21 11 77C11 77 24 95 48 95C72 95 85 77 85 77Z" fill="white"/>
<circle cx="48" cy="48" r="48" fill="black" fill-opacity="0.7"/>
<g clip-path="url(#clip1_500_6747)">
<path d="M55.5 48C55.5 52.1421 52.1421 55.5 48 55.5C43.8579 55.5 40.5 52.1421 40.5 48C40.5 43.8579 43.8579 40.5 48 40.5C52.1421 40.5 55.5 43.8579 55.5 48Z" fill="#2773E4" stroke="white"/>
<path d="M48.552 46.3869L48.552 46.3869L48.0359 44.7071L47.4857 46.3939C47.4234 46.5876 47.3011 46.7566 47.1364 46.8764C46.9716 46.9962 46.773 47.0606 46.5692 47.06M48.552 46.3869L46.57 46.56M48.552 46.3869L48.5537 46.3922C48.6158 46.5866 48.7383 46.7563 48.9035 46.8764C49.0683 46.9962 49.2669 47.0606 49.4708 47.06M48.552 46.3869L49.4708 47.06M46.5692 47.06C46.5688 47.06 46.5684 47.06 46.568 47.06L46.57 46.56M46.5692 47.06H46.57V46.56M46.5692 47.06H44.6831M46.57 46.56H44.57C44.4708 46.5576 44.3735 46.5874 44.2925 46.6449C44.2116 46.7025 44.1514 46.7846 44.121 46.8791C44.0907 46.9736 44.0917 47.0754 44.124 47.1693C44.1562 47.2632 44.218 47.3441 44.3 47.4L45.89 48.55C45.9679 48.609 46.026 48.6905 46.0563 48.7834C46.0867 48.8763 46.088 48.9763 46.06 49.07L45.45 50.93C45.4175 51.0231 45.4157 51.1241 45.4449 51.2183C45.4741 51.3124 45.5328 51.3947 45.6124 51.4529C45.6919 51.5112 45.7881 51.5424 45.8867 51.5418C45.9853 51.5413 46.0811 51.5091 46.16 51.45L47.7499 50.3M44.6831 47.06L44.593 46.9949L44.5931 46.9947L44.5816 46.9868C44.5855 46.9895 44.5889 46.9929 44.5917 46.9967C44.5939 46.9998 44.5956 47.0032 44.5969 47.0069C44.5996 47.0149 44.5998 47.0237 44.5971 47.0321C44.5943 47.0406 44.5891 47.0476 44.5822 47.0525C44.5785 47.0551 44.5744 47.0571 44.57 47.0583C44.5662 47.0594 44.5622 47.06 44.5581 47.0599L44.5581 47.06H44.57H44.6831ZM44.6831 47.06L46.183 48.1449L46.192 48.1514L46.1919 48.1515C46.3509 48.272 46.4695 48.4382 46.5316 48.628C46.5936 48.8178 46.5962 49.0219 46.5391 49.2132L46.5353 49.2259L46.5351 49.2258L45.9608 50.977M45.9608 50.977L45.867 51.0449L45.8669 51.0448L45.8602 51.0498C45.8625 51.0481 45.8649 51.0467 45.8674 51.0455C45.8726 51.0431 45.8782 51.0419 45.884 51.0418C45.8925 51.0418 45.9009 51.0445 45.9078 51.0496C45.9148 51.0547 45.9199 51.0618 45.9224 51.07C45.924 51.0751 45.9245 51.0803 45.9241 51.0855C45.9238 51.0887 45.9231 51.0919 45.922 51.095L45.9221 51.0951L45.9251 51.0858L45.9608 50.977ZM45.9608 50.977L47.454 49.8969M47.454 49.8969C47.4527 49.898 47.4513 49.899 47.4499 49.9L47.7499 50.3M47.454 49.8969C47.6177 49.7755 47.8162 49.71 48.02 49.71C48.2238 49.71 48.4222 49.7755 48.5859 49.8969M47.454 49.8969L47.4569 49.8949L47.7499 50.3M47.7499 50.3C47.8278 50.2416 47.9226 50.21 48.02 50.21C48.1173 50.21 48.2121 50.2416 48.29 50.3M49.4708 47.06H51.3574M49.4708 47.06L51.4699 46.56C51.5692 46.5576 51.6666 46.5874 51.7475 46.6449C51.8284 46.7025 51.8885 46.7846 51.9189 46.8791C51.9493 46.9736 51.9482 47.0754 51.916 47.1693C51.8837 47.2632 51.822 47.3441 51.7399 47.4L50.16 48.55M51.3574 47.06L49.8676 48.1444M51.3574 47.06H51.4699V47.0601L51.4818 47.0599C51.4778 47.06 51.4738 47.0594 51.4699 47.0583C51.4656 47.0571 51.4616 47.0551 51.4578 47.0525C51.4507 47.0474 51.4455 47.0402 51.4429 47.0321C51.4402 47.0237 51.4403 47.0149 51.4431 47.0069C51.4441 47.0037 51.4456 47.0008 51.4474 46.9981C51.4502 46.9936 51.454 46.9898 51.4584 46.9868L51.452 46.9912L51.4457 46.9957L51.3574 47.06ZM49.8676 48.1444C49.7013 48.2635 49.5775 48.4325 49.5141 48.6266C49.4506 48.8208 49.4505 49.0305 49.5146 49.2252M49.8676 48.1444C49.8685 48.1438 49.8694 48.1431 49.8703 48.1425L50.16 48.55M49.8676 48.1444L49.8657 48.1457L50.16 48.55M49.5146 49.2252L50.08 50.9776M49.5146 49.2252L49.5141 49.2235L49.9899 49.07M49.5146 49.2252C49.5149 49.226 49.5152 49.2269 49.5155 49.2277L49.9899 49.07M50.08 50.9776L48.5859 49.8969M50.08 50.9776L50.1142 51.0835L50.114 51.0836L50.1181 51.095C50.1167 51.0911 50.1159 51.087 50.1158 51.083C50.1156 51.0785 50.1162 51.0741 50.1175 51.07C50.1201 51.0618 50.1252 51.0547 50.1321 51.0496C50.1391 51.0445 50.1474 51.0418 50.156 51.0418C50.1617 51.0419 50.1673 51.0431 50.1725 51.0455C50.175 51.0467 50.1775 51.0481 50.1797 51.0498L50.1798 51.0498L50.173 51.0449L50.08 50.9776ZM48.5859 49.8969C48.5873 49.898 48.5886 49.899 48.59 49.9L48.29 50.3M48.5859 49.8969L48.583 49.8949L48.29 50.3M48.29 50.3L49.88 51.45C49.9589 51.5091 50.0547 51.5413 50.1533 51.5418C50.2519 51.5424 50.348 51.5112 50.4276 51.4529C50.5071 51.3947 50.5658 51.3124 50.595 51.2183C50.6243 51.1241 50.6226 51.0231 50.59 50.93L49.9899 49.07M49.9899 49.07C49.9589 48.9765 49.9587 48.8756 49.9893 48.782C50.0199 48.6884 50.0797 48.6071 50.16 48.55" fill="white" stroke="white"/>
</g>
</g>
<defs>
<clipPath id="clip0_500_6747">
<rect width="96" height="96" fill="white"/>
</clipPath>
<clipPath id="clip1_500_6747">
<rect width="24" height="24" fill="white" transform="translate(36 36)"/>
</clipPath>
</defs>
</svg>
