<svg width="72" height="72" viewBox="0 0 72 72" fill="none" xmlns="http://www.w3.org/2000/svg">
<g clip-path="url(#clip0_549_8701)">
<path d="M36 72C55.8823 72 72 55.8823 72 36C72 16.1178 55.8823 0 36 0C16.1178 0 0 16.1178 0 36C0 55.8823 16.1178 72 36 72Z" fill="white"/>
<circle cx="36" cy="36" r="35.5" fill="white" stroke="#505050"/>
<path d="M13.1662 30.6818C14.4438 24.7851 23.9108 21.9246 28.693 23.2289C32.7921 20.0614 39.0652 20.766 42.7294 22.2973C46.8906 24.0363 49.4369 34.9672 49.7474 41.5506C50.058 48.134 40.3692 51.2393 29.6867 51.3014C19.0042 51.3636 14.5326 48.134 15.1536 43.8486C15.6524 40.4061 19.9153 38.6315 22.2339 38.0726C22.2339 38.0726 11.5515 38.1347 13.1662 30.6818Z" fill="#DCECFF" stroke="black" stroke-linejoin="round"/>
<path d="M50.3064 22.4216C46.9278 21.7757 43.93 22.6908 42.8535 23.229C43.516 23.5603 44.7788 25.6885 44.5304 31.5514C44.2199 38.8801 48.0084 42.6687 53.5981 41.9234C57.4155 41.4144 59.8088 38.8801 59.8088 32.7936C59.8088 26.707 54.5297 23.229 50.3064 22.4216Z" fill="#DCECFF"/>
<path d="M42.8535 23.229C43.93 22.6908 46.9278 21.7757 50.3064 22.4216C54.5297 23.229 59.8088 26.707 59.8088 32.7936C59.8088 38.8801 57.4155 41.4144 53.5981 41.9234C48.0084 42.6687 44.2199 38.8801 44.5304 31.5514" stroke="black" stroke-linejoin="round"/>
<ellipse cx="30.2458" cy="34.5326" rx="4.40963" ry="4.9686" fill="white" stroke="black" stroke-linejoin="round"/>
<ellipse cx="28.5068" cy="34.5324" rx="2.67062" ry="2.98116" fill="black"/>
<ellipse cx="37.5744" cy="34.5326" rx="4.40963" ry="4.9686" fill="white" stroke="black" stroke-linejoin="round"/>
<ellipse cx="24.7806" cy="42.7929" rx="1.92533" ry="1.55269" fill="black"/>
<ellipse cx="35.8354" cy="34.5324" rx="2.67062" ry="2.98116" fill="black"/>
</g>
<defs>
<clipPath id="clip0_549_8701">
<rect width="72" height="72" fill="white"/>
</clipPath>
</defs>
</svg>
