<svg width="96" height="96" viewBox="0 0 96 96" fill="none" xmlns="http://www.w3.org/2000/svg">
<g clip-path="url(#clip0_490_5940)">
<path d="M48 2C57.098 2 65.9916 4.69787 73.5562 9.75241C81.1209 14.807 87.0168 21.9912 90.4984 30.3966C93.9801 38.802 94.891 48.051 93.1161 56.9742C91.3412 65.8973 86.9601 74.0937 80.5269 80.5269C74.0937 86.9601 65.8973 91.3412 56.9742 93.1161C48.051 94.891 38.802 93.9801 30.3966 90.4984C21.9912 87.0168 14.807 81.1209 9.75241 73.5562C4.69787 65.9916 2.00003 57.0979 2.00003 48C2.01591 35.8049 6.8674 24.1139 15.4906 15.4906C24.1139 6.8674 35.805 2.01588 48 2ZM48 0C38.5065 0 29.2262 2.81514 21.3326 8.08945C13.4391 13.3638 7.28679 20.8603 3.65378 29.6312C0.0207751 38.402 -0.929755 48.0533 0.922336 57.3643C2.77443 66.6754 7.34595 75.2282 14.0589 81.9411C20.7718 88.6541 29.3246 93.2256 38.6357 95.0777C47.9467 96.9298 57.598 95.9792 66.3688 92.3462C75.1397 88.7132 82.6362 82.5609 87.9106 74.6674C93.1849 66.7738 96 57.4935 96 48C96 35.2696 90.9429 23.0606 81.9411 14.0589C72.9394 5.05712 60.7304 0 48 0Z" fill="#505050"/>
<path d="M48 95C73.9574 95 95 73.9574 95 48C95 22.0426 73.9574 1 48 1C22.0426 1 1 22.0426 1 48C1 73.9574 22.0426 95 48 95Z" fill="#C5DDF9"/>
<path d="M48.0001 57.38C58.5984 57.38 67.1901 48.7883 67.1901 38.19C67.1901 27.5917 58.5984 19 48.0001 19C37.4017 19 28.8101 27.5917 28.8101 38.19C28.8101 48.7883 37.4017 57.38 48.0001 57.38Z" fill="white"/>
<path d="M85 77C81.49 73.2 68.85 62.11 48 62.11C26.87 62.11 14.45 73.21 11 77C11 77 17 85.3507 27.5 90.328C33.1319 92.9977 40.2896 95.0339 49.1 95.15C59.3645 94.6561 67.434 91.2387 73.3006 87.5C81.094 82.5335 85 77 85 77Z" fill="white"/>
</g>
<defs>
<clipPath id="clip0_490_5940">
<rect width="96" height="96" fill="white"/>
</clipPath>
</defs>
</svg>
