<svg width="96" height="96" viewBox="0 0 96 96" fill="none" xmlns="http://www.w3.org/2000/svg">
<g clip-path="url(#clip0_500_8303)">
<path d="M48 2C57.098 2 65.9916 4.69787 73.5562 9.75241C81.1209 14.807 87.0168 21.9912 90.4984 30.3966C93.98 38.802 94.891 48.051 93.1161 56.9741C91.3412 65.8973 86.9601 74.0937 80.5269 80.5269C74.0937 86.9601 65.8973 91.3412 56.9741 93.1161C48.051 94.891 38.802 93.98 30.3966 90.4984C21.9912 87.0168 14.807 81.1209 9.75241 73.5562C4.69787 65.9916 2.00003 57.0979 2.00003 48C2.01591 35.8049 6.8674 24.1139 15.4906 15.4906C24.1139 6.86739 35.8049 2.01588 48 2ZM48 0C38.5065 0 29.2262 2.81514 21.3326 8.08945C13.4391 13.3638 7.28679 20.8603 3.65378 29.6312C0.0207751 38.402 -0.929754 48.0532 0.922336 57.3643C2.77443 66.6754 7.34595 75.2282 14.0589 81.9411C20.7718 88.654 29.3246 93.2256 38.6356 95.0777C47.9467 96.9298 57.5979 95.9792 66.3688 92.3462C75.1396 88.7132 82.6362 82.5609 87.9105 74.6673C93.1848 66.7738 96 57.4935 96 48C96 35.2696 90.9428 23.0606 81.9411 14.0589C72.9394 5.05712 60.7304 0 48 0Z" fill="#505050"/>
<path d="M48 95C73.9574 95 95 73.9574 95 48C95 22.0426 73.9574 1 48 1C22.0426 1 1 22.0426 1 48C1 73.9574 22.0426 95 48 95Z" fill="#C5DDF9"/>
<path d="M48.0001 57.38C58.5984 57.38 67.1901 48.7883 67.1901 38.19C67.1901 27.5917 58.5984 19 48.0001 19C37.4017 19 28.8101 27.5917 28.8101 38.19C28.8101 48.7883 37.4017 57.38 48.0001 57.38Z" fill="white"/>
<path d="M84.27 76.8C80.76 73 68.85 62.11 48 62.11C26.87 62.11 15.15 73.01 11.7 76.8C11.7 76.8 22.54 94.8 49.1 95.15C71.91 95.43 84.27 76.8 84.27 76.8Z" fill="white"/>
<g clip-path="url(#clip1_500_8303)">
<path d="M93.0098 64H3C5.95409 73.2732 11.9201 81.3893 20.0211 87.1553C28.1221 92.9213 37.9306 96.033 48.0049 96.033C58.0791 96.033 67.8877 92.9213 75.9887 87.1553C84.0897 81.3893 90.0557 73.2732 93.0098 64Z" fill="black" fill-opacity="0.7"/>
<path d="M45.7599 71.375H44.5255V74.0312H42.1505V75.0469H44.5255V76.6562H42.1505V77.6875H44.5255V81.7188H45.7599V71.375ZM34.2755 78.5625L34.4318 79.6094C36.6896 79.6016 39.8615 79.5547 42.5568 79.1406L42.4943 78.2188C41.8927 78.2891 41.2599 78.3438 40.6193 78.3828V73.5156H42.0411V72.5156H34.6661V73.5156H36.0724V78.5469C35.4318 78.5547 34.8302 78.5625 34.2755 78.5625ZM36.8068 84.9688H46.1349V83.9375H38.0411V80.8594H36.8068V84.9688ZM37.2599 78.5234V73.5156H39.4318V78.4531C38.7052 78.4844 37.9708 78.5078 37.2599 78.5234ZM53.0724 73.6719V73.3125H56.2755V72.3125H48.588V73.3125H51.838V73.6719C51.8302 75.5781 50.338 77.2891 48.2443 77.9531L48.8849 78.9219C50.5411 78.3594 51.8536 77.1562 52.4708 75.6172C53.0958 77.0547 54.4005 78.1719 56.0255 78.6875L56.6505 77.7188C54.5802 77.0938 53.0802 75.4844 53.0724 73.6719ZM50.5411 85.0781H59.5411V79.5781H58.3224V81.2656H51.7599V79.5781H50.5411V85.0781ZM51.7599 84.0781V82.25H58.3224V84.0781H51.7599ZM58.3224 78.8906H59.5411V71.375H58.3224V78.8906Z" fill="white"/>
</g>
</g>
<defs>
<clipPath id="clip0_500_8303">
<rect width="96" height="96" fill="white"/>
</clipPath>
<clipPath id="clip1_500_8303">
<rect width="90" height="32" fill="white" transform="translate(3 64)"/>
</clipPath>
</defs>
</svg>
