<svg width="60" height="60" viewBox="0 0 60 60" fill="none" xmlns="http://www.w3.org/2000/svg">
<g clip-path="url(#clip0_505_7564)">
<path d="M30 60C46.5685 60 60 46.5685 60 30C60 13.4315 46.5685 0 30 0C13.4315 0 0 13.4315 0 30C0 46.5685 13.4315 60 30 60Z" fill="white"/>
<circle cx="30" cy="30" r="29.5" fill="white" stroke="#505050"/>
<path d="M11.1312 26.0054C12.1958 21.0915 20.085 18.7078 24.0702 19.7947C27.4861 17.1551 32.7136 17.7422 35.7672 19.0183C39.2348 20.4675 41.3567 29.5766 41.6155 35.0627C41.8743 40.5489 33.8003 43.1367 24.8983 43.1885C15.9962 43.2402 12.2699 40.5489 12.7873 36.9777C13.203 34.109 16.7554 32.6302 18.6876 32.1644C18.6876 32.1644 9.78556 32.2161 11.1312 26.0054Z" fill="#DCECFF" stroke="black" stroke-linejoin="round"/>
<path d="M42.0814 19.1219C39.2658 18.5836 36.7677 19.3462 35.8706 19.7947C36.4227 20.0708 37.475 21.8443 37.268 26.7301C37.0092 32.8373 40.1664 35.9944 44.8244 35.3734C48.0056 34.9492 50 32.8373 50 27.7652C50 22.6931 45.6008 19.7947 42.0814 19.1219Z" fill="#DCECFF"/>
<path d="M35.8706 19.7947C36.7677 19.3462 39.2658 18.5836 42.0814 19.1219C45.6008 19.7947 50 22.6931 50 27.7652C50 32.8373 48.0056 34.9492 44.8244 35.3734C40.1664 35.9944 37.0092 32.8373 37.268 26.7301" stroke="black" stroke-linejoin="round"/>
<ellipse cx="25.3641" cy="29.2143" rx="3.67469" ry="4.1405" fill="white" stroke="black" stroke-linejoin="round"/>
<ellipse cx="23.915" cy="29.2143" rx="2.22552" ry="2.4843" fill="black"/>
<ellipse cx="31.4713" cy="29.2143" rx="3.67469" ry="4.1405" fill="white" stroke="black" stroke-linejoin="round"/>
<ellipse cx="20.8098" cy="36.098" rx="1.60444" ry="1.29391" fill="black"/>
<ellipse cx="30.0221" cy="29.2143" rx="2.22552" ry="2.4843" fill="black"/>
</g>
<defs>
<clipPath id="clip0_505_7564">
<rect width="60" height="60" fill="white"/>
</clipPath>
</defs>
</svg>
