<svg width="24" height="24" viewBox="0 0 24 24" fill="none" xmlns="http://www.w3.org/2000/svg">
<path d="M13.5 10H10.5C9.94772 10 9.5 10.4477 9.5 11V13C9.5 13.5523 9.94772 14 10.5 14H13.5C14.0523 14 14.5 13.5523 14.5 13V11C14.5 10.4477 14.0523 10 13.5 10Z" stroke="black" stroke-miterlimit="10"/>
<path d="M9.5 13V11C9.50301 10.8335 9.54756 10.6703 9.62964 10.5254C9.71172 10.3804 9.8287 10.2583 9.96997 10.17V10.17L8.17993 8.77004C6.51993 7.47004 3.84998 8.48004 3.84998 10.4V13.63C3.84998 15.55 6.51993 16.56 8.17993 15.26L9.96997 13.86C9.82441 13.7691 9.70463 13.6422 9.62231 13.4916C9.54 13.3409 9.49795 13.1717 9.5 13Z" stroke="black" stroke-linecap="round" stroke-linejoin="round"/>
<path d="M14.5 13V11C14.497 10.8335 14.4523 10.6703 14.3702 10.5254C14.2882 10.3804 14.1712 10.2583 14.0299 10.17V10.17L15.8199 8.77004C17.4699 7.47004 20.1399 8.48004 20.1399 10.4V13.63C20.1399 15.55 17.4699 16.56 15.8199 15.26L14.0299 13.86C14.1755 13.7691 14.2952 13.6422 14.3776 13.4916C14.4599 13.3409 14.5021 13.1717 14.5 13Z" stroke="black" stroke-linecap="round" stroke-linejoin="round"/>
</svg>
