<svg width="24" height="24" viewBox="0 0 24 24" fill="none" xmlns="http://www.w3.org/2000/svg">
<path d="M12 20C16.4183 20 20 16.4183 20 12C20 7.58172 16.4183 4 12 4C7.58172 4 4 7.58172 4 12C4 16.4183 7.58172 20 12 20Z" stroke="black" stroke-miterlimit="10"/>
<path d="M8.91003 12.22C10.0864 12.22 11.04 11.2663 11.04 10.09C11.04 8.91359 10.0864 7.95996 8.91003 7.95996C7.73366 7.95996 6.78003 8.91359 6.78003 10.09C6.78003 11.2663 7.73366 12.22 8.91003 12.22Z" stroke="black" stroke-miterlimit="10"/>
<path d="M15.17 12.22C16.3464 12.22 17.3 11.2663 17.3 10.09C17.3 8.91359 16.3464 7.95996 15.17 7.95996C13.9937 7.95996 13.04 8.91359 13.04 10.09C13.04 11.2663 13.9937 12.22 15.17 12.22Z" stroke="black" stroke-miterlimit="10"/>
<path d="M19.17 15.51C18.6785 14.9386 18.062 14.4881 17.3684 14.1933C16.6747 13.8985 15.9225 13.7673 15.17 13.81C14.0713 13.8682 12.999 14.1687 12.03 14.69C11.1012 14.0873 10.0172 13.7677 8.91003 13.77C8.16021 13.7259 7.41021 13.8534 6.71708 14.1428C6.02395 14.4322 5.40594 14.8758 4.91003 15.44C4.91003 15.44 7.10003 20 12 20C16.9 20 19.17 15.51 19.17 15.51Z" stroke="black" stroke-linejoin="round"/>
</svg>
