<svg width="24" height="24" viewBox="0 0 24 24" fill="none" xmlns="http://www.w3.org/2000/svg">
<path d="M6.71997 5.09998H5.71997C5.16769 5.09998 4.71997 5.54769 4.71997 6.09998V7.09998C4.71997 7.65226 5.16769 8.09998 5.71997 8.09998H6.71997C7.27226 8.09998 7.71997 7.65226 7.71997 7.09998V6.09998C7.71997 5.54769 7.27226 5.09998 6.71997 5.09998Z" stroke="black" stroke-miterlimit="10"/>
<path d="M9.64001 6.59998H19.41" stroke="black" stroke-miterlimit="10"/>
<path d="M6.71997 10.5H5.71997C5.16769 10.5 4.71997 10.9477 4.71997 11.5V12.5C4.71997 13.0523 5.16769 13.5 5.71997 13.5H6.71997C7.27226 13.5 7.71997 13.0523 7.71997 12.5V11.5C7.71997 10.9477 7.27226 10.5 6.71997 10.5Z" stroke="black" stroke-miterlimit="10"/>
<path d="M9.64001 12H19.41" stroke="black" stroke-miterlimit="10"/>
<path d="M6.71997 15.9H5.71997C5.16769 15.9 4.71997 16.3477 4.71997 16.9V17.9C4.71997 18.4523 5.16769 18.9 5.71997 18.9H6.71997C7.27226 18.9 7.71997 18.4523 7.71997 17.9V16.9C7.71997 16.3477 7.27226 15.9 6.71997 15.9Z" stroke="black" stroke-miterlimit="10"/>
<path d="M9.64001 17.4H19.41" stroke="black" stroke-miterlimit="10"/>
</svg>
