<svg width="24" height="24" viewBox="0 0 24 24" fill="none" xmlns="http://www.w3.org/2000/svg">
<path d="M12 20C16.4183 20 20 16.4183 20 12C20 7.58172 16.4183 4 12 4C7.58172 4 4 7.58172 4 12C4 16.4183 7.58172 20 12 20Z" stroke="black" stroke-miterlimit="10"/>
<path d="M12.65 11.1501C12.9481 10.991 13.198 10.755 13.3739 10.4666C13.5498 10.1781 13.6451 9.84783 13.65 9.51005C13.6521 9.30171 13.6107 9.09523 13.5286 8.90377C13.4464 8.7123 13.3253 8.54004 13.1729 8.39798C13.0204 8.25592 12.8401 8.14717 12.6434 8.07866C12.4466 8.01015 12.2377 7.98338 12.03 8.00006C11.8182 7.98908 11.6063 8.02172 11.4075 8.09596C11.2088 8.17019 11.0274 8.28443 10.8746 8.43161C10.7218 8.57879 10.6009 8.75577 10.5192 8.95159C10.4376 9.14742 10.397 9.35792 10.4 9.57006H9.16003C9.16717 9.20702 9.24831 8.84925 9.39844 8.51863C9.54856 8.18801 9.76451 7.89149 10.0331 7.64719C10.3018 7.40289 10.6174 7.21595 10.9608 7.0978C11.3041 6.97966 11.6679 6.93279 12.03 6.96005C12.6257 6.92263 13.2165 7.08818 13.7061 7.42969C14.1956 7.7712 14.5549 8.26851 14.7255 8.8405C14.896 9.41249 14.8677 10.0254 14.6451 10.5792C14.4226 11.1331 14.019 11.5951 13.5001 11.8901C13.1028 12.0957 12.7773 12.4171 12.5667 12.8117C12.356 13.2063 12.27 13.6555 12.3201 14.1001V14.1701H11.15V14.1001C11.15 12.2401 11.71 11.7201 12.65 11.1501ZM11.7601 15.2701C11.9935 15.2701 12.2173 15.3628 12.3823 15.5278C12.5474 15.6928 12.6401 15.9167 12.6401 16.1501C12.6401 16.3834 12.5474 16.6073 12.3823 16.7723C12.2173 16.9373 11.9935 17.0301 11.7601 17.0301C11.5267 17.0301 11.3028 16.9373 11.1378 16.7723C10.9728 16.6073 10.8801 16.3834 10.8801 16.1501C10.8801 15.9167 10.9728 15.6928 11.1378 15.5278C11.3028 15.3628 11.5267 15.2701 11.7601 15.2701Z" fill="black"/>
</svg>
