<svg width="24" height="24" viewBox="0 0 24 24" fill="none" xmlns="http://www.w3.org/2000/svg">
<path d="M7.45996 8.90002H11.61" stroke="black" stroke-miterlimit="10"/>
<path d="M14.1 7.33997C13.303 7.71208 12.5597 8.18969 11.89 8.75996C11.403 9.37187 11.0735 10.0939 10.9305 10.8628C10.7876 11.6317 10.8354 12.4239 11.0699 13.17C11.1973 13.4942 11.4186 13.7731 11.7054 13.9708C11.9923 14.1686 12.3316 14.2762 12.6799 14.28C12.9312 14.2743 13.1777 14.2087 13.3985 14.0887C13.6194 13.9687 13.8084 13.7977 13.9499 13.59C14.2283 12.979 14.3878 12.3206 14.4199 11.65C14.525 12.0277 14.7301 12.3702 15.0134 12.6412C15.2968 12.9122 15.648 13.1018 16.03 13.19C16.3502 13.2888 16.6919 13.2953 17.0156 13.2086C17.3394 13.122 17.632 12.9456 17.86 12.7" stroke="black" stroke-linecap="round" stroke-linejoin="round"/>
<path d="M13.4399 14.9H9.67993C9.28211 14.9 8.90057 14.742 8.61926 14.4607C8.33796 14.1794 8.17993 13.7978 8.17993 13.4C8.17993 13.0022 8.33796 12.6207 8.61926 12.3394C8.90057 12.0581 9.28211 11.9 9.67993 11.9H10.8099" stroke="black" stroke-linecap="round" stroke-linejoin="round"/>
<path d="M13.1 14.9H11.27C10.8722 14.9 10.4907 15.0581 10.2094 15.3394C9.92805 15.6207 9.77002 16.0022 9.77002 16.4C9.77002 16.7978 9.92805 17.1794 10.2094 17.4607C10.4907 17.742 10.8722 17.9 11.27 17.9H13.48C13.8778 17.9 14.2593 17.742 14.5406 17.4607C14.822 17.1794 14.98 16.7978 14.98 16.4C14.98 16.0022 14.822 15.6207 14.5406 15.3394C14.2593 15.0581 13.8778 14.9 13.48 14.9H13.1Z" stroke="black" stroke-linecap="round" stroke-linejoin="round"/>
<path d="M10.8099 11.9H8.80994C8.41211 11.9 8.03057 11.742 7.74927 11.4607C7.46796 11.1794 7.30994 10.7978 7.30994 10.4C7.30994 10.0022 7.46796 9.62068 7.74927 9.33937C8.03057 9.05807 8.41211 8.90002 8.80994 8.90002H11.62" stroke="black" stroke-linecap="round" stroke-linejoin="round"/>
<path d="M13.45 17.9C13.45 17.9 16.5 18.54 18.53 17.55C19.6487 17.0564 20.5864 16.2273 21.2134 15.1775C21.8404 14.1277 22.1258 12.909 22.03 11.69C22.03 8.48 20.03 5.89001 17.9 5.89001H3.46997C3.07123 5.89266 2.68971 6.05291 2.40869 6.3358C2.12767 6.61869 1.96996 7.00126 1.96997 7.40001C1.96997 7.79783 2.128 8.17936 2.4093 8.46066C2.69061 8.74197 3.07215 8.90001 3.46997 8.90001H11.61" stroke="black" stroke-miterlimit="10"/>
</svg>
