<svg width="24" height="24" viewBox="0 0 24 24" fill="none" xmlns="http://www.w3.org/2000/svg">
<path d="M12 20C16.4183 20 20 16.4183 20 12C20 7.58172 16.4183 4 12 4C7.58172 4 4 7.58172 4 12C4 16.4183 7.58172 20 12 20Z" stroke="black" stroke-linejoin="round"/>
<path d="M17 18.24C16.0638 17.4905 15.3082 16.5401 14.7889 15.4591C14.2696 14.3781 14 13.1942 14 11.995C14 10.7958 14.2696 9.61187 14.7889 8.5309C15.3082 7.44992 16.0638 6.49952 17 5.75" stroke="black" stroke-linejoin="round"/>
<path d="M7 18.24C7.93615 17.4905 8.69184 16.5401 9.21112 15.4591C9.7304 14.3781 10 13.1942 10 11.995C10 10.7958 9.7304 9.61187 9.21112 8.5309C8.69184 7.44992 7.93615 6.49952 7 5.75" stroke="black" stroke-linejoin="round"/>
<path d="M4 12H20" stroke="black" stroke-linejoin="round"/>
</svg>
