<?xml version="1.0" encoding="utf-8"?>
<!-- Generator: Adobe Illustrator 26.2.1, SVG Export Plug-In . SVG Version: 6.00 Build 0)  -->
<svg version="1.1" id="레이어_1" xmlns="http://www.w3.org/2000/svg" xmlns:xlink="http://www.w3.org/1999/xlink" x="0px"
	 y="0px" viewBox="0 0 40 40" style="enable-background:new 0 0 40 40;" xml:space="preserve">
<style type="text/css">
	.st0{fill:none;}
	.st1{fill:#4285F4;}
	.st2{fill:#34A852;}
	.st3{fill:#EA4334;}
	.st4{fill:#FABD05;}
</style>
<g>
	<path class="st0" d="M24.2,14.8c-1.2-0.9-2.6-1.5-4.2-1.5c-2.8,0-5.3,1.8-6.2,4.3"/>
	<path class="st0" d="M24.2,14.8"/>
	<path class="st0" d="M23.1,25.9c2.1-1.1,3.6-3.4,3.6-5.9"/>
	<path class="st0" d="M13.5,21.9c0.8,2.8,3.4,4.9,6.4,4.9c1.1,0,2.2-0.3,3.1-0.8"/>
	<path class="st0" d="M13.7,17.6c-0.3,0.8-0.5,1.6-0.5,2.4c0,0.6,0.1,1.3,0.3,1.9"/>
	<path class="st1" d="M32,17.7h-5.3h-5.3v4.8h4.8c-0.6,1.5-1.7,2.7-3.1,3.4l5,3.8c2.8-2.3,4.6-5.8,4.6-9.7v-2.3H32z"/>
	<path class="st2" d="M20,26.7c-3.1,0-5.6-2.1-6.4-4.9L8.8,26c2.2,4,6.4,6.7,11.2,6.7c3.1,0,5.9-1.1,8.1-3l-5-3.8
		C22.1,26.4,21.1,26.7,20,26.7z"/>
	<path class="st3" d="M20,13.3c1.6,0,3.1,0.6,4.2,1.5l4.1-4.4c-2.2-2-5.1-3.1-8.3-3.1c-4.8,0-8.9,2.6-11.1,6.5l4.9,3.7
		C14.7,15.1,17.1,13.3,20,13.3z"/>
	<path class="st4" d="M13.2,20c0-0.9,0.2-1.7,0.5-2.4l-4.9-3.7c-1,1.8-1.6,3.9-1.6,6.2c0,2.2,0.6,4.2,1.5,6l4.7-4.2
		C13.3,21.3,13.2,20.6,13.2,20z"/>
</g>
</svg>
